{"id":"258b1d7b-8b1a-433c-9d49-2fdd16d7a8fd","name":"Demo Song (WIP)","tempo":120,"timeSignatureNum":4,"timeSignatureDen":4,"tracks":[{"id":"0f338619-7d74-4bcb-ad4e-f7c8e583be5e","name":"Bass","type":"audio","color":"#3b82f6","volume":0.8,"pan":0,"mute":false,"solo":false,"armed":false,"inputSource":null,"height":64,"effects":[],"instrument":{"type":"poly","params":{"waveform":"sawtooth","attack":0.005,"decay":0.15,"sustain":0.6,"release":0.4,"detune":0,"filterType":"lowpass","filterCutoff":2400,"filterResonance":1.2,"lfoEnabled":false,"lfoRate":4,"lfoDepth":0.3,"lfoTarget":"filter","lfoWaveform":"sine"}}},{"id":"8e52eff1-c2a9-4fc3-8c9b-f9573731ebe0","name":"Chords","type":"audio","color":"#22c55e","volume":0.8,"pan":0,"mute":false,"solo":false,"armed":false,"inputSource":null,"height":64,"effects":[],"instrument":{"type":"poly","params":{"waveform":"sawtooth","attack":0.005,"decay":0.15,"sustain":0.6,"release":0.4,"detune":0,"filterType":"lowpass","filterCutoff":2400,"filterResonance":1.2,"lfoEnabled":false,"lfoRate":4,"lfoDepth":0.3,"lfoTarget":"filter","lfoWaveform":"sine"}}},{"id":"f5549d5a-4d11-491e-af63-3f29a9f51781","name":"Arp","type":"audio","color":"#f97316","volume":0.8,"pan":0,"mute":false,"solo":false,"armed":false,"inputSource":null,"height":64,"effects":[],"instrument":{"type":"poly","params":{"waveform":"square","attack":0.005,"decay":0.15,"sustain":0.6,"release":0.4,"detune":0,"filterType":"lowpass","filterCutoff":2400,"filterResonance":1.2,"lfoEnabled":false,"lfoRate":4,"lfoDepth":0.3,"lfoTarget":"filter","lfoWaveform":"sine"}}},{"id":"185239ed-ce60-41e9-8a9a-9887da37b771","name":"Lead","type":"audio","color":"#a855f7","volume":0.8,"pan":0,"mute":false,"solo":false,"armed":false,"inputSource":null,"height":64,"effects":[],"instrument":{"type":"poly","params":{"waveform":"triangle","attack":0.005,"decay":0.15,"sustain":0.6,"release":0.4,"detune":0,"filterType":"lowpass","filterCutoff":2400,"filterResonance":1.2,"lfoEnabled":false,"lfoRate":4,"lfoDepth":0.3,"lfoTarget":"filter","lfoWaveform":"sine"}}}],"arrangementClips":[{"kind":"midi","id":"516105af-9931-49f7-8a42-05a90d490839","trackId":"0f338619-7d74-4bcb-ad4e-f7c8e583be5e","name":"Bass","startBeat":0,"durationBeats":16,"isDrumClip":false,"notes":[{"id":"329d576c-b789-4e20-b7f0-2e92db17cdeb","pitch":33,"startBeat":0,"durationBeats":0.5,"velocity":110},{"id":"81454829-4f75-4689-b8ca-3b3d61f7cb1d","pitch":33,"startBeat":1.5,"durationBeats":0.5,"velocity":96},{"id":"e2f57967-4348-4eaa-8624-7f091d6bd425","pitch":40,"startBeat":2.5,"durationBeats":0.5,"velocity":96},{"id":"62a11850-07fb-4945-9a2a-f8ef0123ab9e","pitch":33,"startBeat":3,"durationBeats":0.5,"velocity":100},{"id":"e9ade111-3d10-4875-b301-8fac1385dbc7","pitch":29,"startBeat":4,"durationBeats":0.5,"velocity":110},{"id":"5fd97c7c-1cd6-4772-b1ec-7fadc51316d4","pitch":29,"startBeat":5.5,"durationBeats":0.5,"velocity":96},{"id":"dc477169-e4e1-4284-a374-b08a024a9dc6","pitch":36,"startBeat":6.5,"durationBeats":0.5,"velocity":96},{"id":"350ca648-66b4-49e2-9629-64779f742175","pitch":29,"startBeat":7,"durationBeats":0.5,"velocity":100},{"id":"22cea1cb-0ccf-4661-bd44-4a4b6e5267c9","pitch":36,"startBeat":8,"durationBeats":0.5,"velocity":110},{"id":"6395b01e-2d81-49b2-a3e3-d323a2ad5791","pitch":36,"startBeat":9.5,"durationBeats":0.5,"velocity":96},{"id":"7f0acb48-2f3b-4797-9910-cb273461a1fc","pitch":43,"startBeat":10.5,"durationBeats":0.5,"velocity":96},{"id":"94ded3f6-84a1-470e-8043-7d784bc7ec3b","pitch":36,"startBeat":11,"durationBeats":0.5,"velocity":100},{"id":"8534567f-6592-4204-887b-0669b7cbf263","pitch":31,"startBeat":12,"durationBeats":0.5,"velocity":110},{"id":"e46e3669-d178-495d-8b0f-c1cfed6f1565","pitch":31,"startBeat":13.5,"durationBeats":0.5,"velocity":96},{"id":"483b5202-2727-4400-b732-e497f019d509","pitch":38,"startBeat":14.5,"durationBeats":0.5,"velocity":96},{"id":"23b07ec2-7cc0-4263-8c63-c6bcda57008e","pitch":31,"startBeat":15,"durationBeats":0.5,"velocity":100}]},{"kind":"midi","id":"ca35b4f9-a937-4ea7-a88c-c32da220a3c9","trackId":"8e52eff1-c2a9-4fc3-8c9b-f9573731ebe0","name":"Chords","startBeat":0,"durationBeats":16,"isDrumClip":false,"notes":[{"id":"dac0af12-ba3c-45e7-882b-2bcec18a3dcc","pitch":57,"startBeat":0,"durationBeats":3.8,"velocity":66},{"id":"8458e9a8-bef1-467c-ac97-5c365ceeb636","pitch":60,"startBeat":0,"durationBeats":3.8,"velocity":66},{"id":"55e71187-2ee9-49be-991f-d38ab71a623c","pitch":64,"startBeat":0,"durationBeats":3.8,"velocity":66},{"id":"63184f40-7646-4622-a37c-e840614f9166","pitch":53,"startBeat":4,"durationBeats":3.8,"velocity":66},{"id":"f4bfb601-5d0f-4550-8146-b1f7808dd51d","pitch":57,"startBeat":4,"durationBeats":3.8,"velocity":66},{"id":"e5c7bf35-d6a4-4bdf-baa2-b42e40d61807","pitch":60,"startBeat":4,"durationBeats":3.8,"velocity":66},{"id":"5b264c81-bd4c-49e2-a944-ab0a26753134","pitch":48,"startBeat":8,"durationBeats":3.8,"velocity":66},{"id":"069e669f-5324-4f68-9050-3be4bf2acf84","pitch":52,"startBeat":8,"durationBeats":3.8,"velocity":66},{"id":"e804c43c-8c86-45fd-823f-b6d66f8a15a5","pitch":55,"startBeat":8,"durationBeats":3.8,"velocity":66},{"id":"1468d429-69f1-42e4-a572-7263f0d7776b","pitch":43,"startBeat":12,"durationBeats":3.8,"velocity":66},{"id":"feee479c-fdcf-4074-9487-ab74bfcc3caa","pitch":47,"startBeat":12,"durationBeats":3.8,"velocity":66},{"id":"e4c69e53-832f-4af8-a4d1-173551bc2a99","pitch":50,"startBeat":12,"durationBeats":3.8,"velocity":66}]},{"kind":"midi","id":"616bb3ae-a1af-4c3d-85ea-f2c953045af2","trackId":"f5549d5a-4d11-491e-af63-3f29a9f51781","name":"Arp","startBeat":0,"durationBeats":16,"isDrumClip":false,"notes":[{"id":"0ae5f98b-8853-45cc-add2-7b5bc38aa2b3","pitch":69,"startBeat":0,"durationBeats":0.45,"velocity":84},{"id":"0f34581c-6c96-47f4-80d2-5de329cb2a04","pitch":71,"startBeat":0.5,"durationBeats":0.45,"velocity":84},{"id":"e1a5cedf-5baf-4f78-a3eb-9665f4b7867c","pitch":72,"startBeat":1,"durationBeats":0.45,"velocity":84},{"id":"f198c36b-70d0-4194-9db6-4854285e3cd4","pitch":74,"startBeat":1.5,"durationBeats":0.45,"velocity":84},{"id":"4f23a5a6-cac9-4d26-8093-46117fbaf755","pitch":76,"startBeat":2,"durationBeats":0.45,"velocity":84},{"id":"474c735c-ac77-42ee-be64-ddf4bf9c83fc","pitch":74,"startBeat":2.5,"durationBeats":0.45,"velocity":84},{"id":"d8750df8-d4b8-4748-b353-d79bb0a66033","pitch":72,"startBeat":3,"durationBeats":0.45,"velocity":84},{"id":"5e6ab774-aa1e-46e7-86ff-4d2bd5074c44","pitch":71,"startBeat":3.5,"durationBeats":0.45,"velocity":84},{"id":"ea93548c-5cb3-458a-a703-6b9267e767df","pitch":69,"startBeat":4,"durationBeats":0.45,"velocity":84},{"id":"e58d5aa7-023d-485f-afec-67c9756633f1","pitch":71,"startBeat":4.5,"durationBeats":0.45,"velocity":84},{"id":"9abe636a-1305-43f8-9139-a407e2e7d105","pitch":72,"startBeat":5,"durationBeats":0.45,"velocity":84},{"id":"89963639-536d-44d3-a6d4-dee86ec0d47c","pitch":74,"startBeat":5.5,"durationBeats":0.45,"velocity":84},{"id":"b3b7c071-3a41-447d-b564-360bdba9bfd4","pitch":76,"startBeat":6,"durationBeats":0.45,"velocity":84},{"id":"6d1e7bee-756a-4c30-b53f-a208d9fb163b","pitch":74,"startBeat":6.5,"durationBeats":0.45,"velocity":84},{"id":"25482669-8996-4dba-a98a-7943f3be9b08","pitch":72,"startBeat":7,"durationBeats":0.45,"velocity":84},{"id":"74aba0d0-5599-41a0-9b7f-22b97e9254da","pitch":71,"startBeat":7.5,"durationBeats":0.45,"velocity":84},{"id":"76f4b355-cf1a-4226-ace6-ab26c8e74a4b","pitch":69,"startBeat":8,"durationBeats":0.45,"velocity":84},{"id":"aa7cb8ba-5bec-4b9a-aa1d-d120c2997c08","pitch":71,"startBeat":8.5,"durationBeats":0.45,"velocity":84},{"id":"e7ecdecb-4f87-4768-b669-9181e955b74c","pitch":72,"startBeat":9,"durationBeats":0.45,"velocity":84},{"id":"2ba5d6b3-9909-4881-8c52-371b5eb001a4","pitch":74,"startBeat":9.5,"durationBeats":0.45,"velocity":84},{"id":"ecf2f925-e719-4556-8f5b-557b54043221","pitch":76,"startBeat":10,"durationBeats":0.45,"velocity":84},{"id":"678f9675-de87-444c-b74a-85c4de43a6ff","pitch":74,"startBeat":10.5,"durationBeats":0.45,"velocity":84},{"id":"3221239d-786c-4f5a-9719-27c58f948ab6","pitch":72,"startBeat":11,"durationBeats":0.45,"velocity":84},{"id":"cf88d5e1-ea65-4dad-9131-6f1a36cbbea2","pitch":71,"startBeat":11.5,"durationBeats":0.45,"velocity":84},{"id":"bf9eaccb-6c69-45bd-872b-5b26b86f45bb","pitch":69,"startBeat":12,"durationBeats":0.45,"velocity":84},{"id":"2a86851b-034a-4919-b80d-9c6779e82c39","pitch":71,"startBeat":12.5,"durationBeats":0.45,"velocity":84},{"id":"32c4a73a-6430-4aca-8897-adeea0f2c176","pitch":72,"startBeat":13,"durationBeats":0.45,"velocity":84},{"id":"acd2d872-96ae-40aa-81ec-4f36ce3bec85","pitch":74,"startBeat":13.5,"durationBeats":0.45,"velocity":84},{"id":"39ea63ee-6971-435e-95dd-0ed908152286","pitch":76,"startBeat":14,"durationBeats":0.45,"velocity":84},{"id":"0ea1fabf-1777-4fa0-be41-0f1c3330e3cb","pitch":74,"startBeat":14.5,"durationBeats":0.45,"velocity":84},{"id":"8990950a-9c19-4266-8f4b-826c56d82fcb","pitch":72,"startBeat":15,"durationBeats":0.45,"velocity":84},{"id":"896cbb30-4f04-4ccd-bcb9-489d75e47d2e","pitch":71,"startBeat":15.5,"durationBeats":0.45,"velocity":84}]},{"kind":"midi","id":"cfd10c2d-be96-4f8f-bff9-bee88c19f0ee","trackId":"185239ed-ce60-41e9-8a9a-9887da37b771","name":"Lead","startBeat":0,"durationBeats":16,"isDrumClip":false,"notes":[{"id":"a04a6ba7-4886-41f4-a586-783434537a2c","pitch":69,"startBeat":0,"durationBeats":1.5,"velocity":96},{"id":"6828a750-7102-4a93-b20b-1af7855958e2","pitch":72,"startBeat":1.5,"durationBeats":0.5,"velocity":90},{"id":"dd621cf6-938b-4648-b396-1fba06065d71","pitch":71,"startBeat":2,"durationBeats":2,"velocity":96},{"id":"e9a2db8c-ca7c-447a-bade-278a8274354c","pitch":76,"startBeat":8,"durationBeats":1,"velocity":96},{"id":"8ad45c1a-6ae7-464a-bf28-4772008727c2","pitch":74,"startBeat":9,"durationBeats":1,"velocity":92},{"id":"b1eaf552-c4c9-4f07-8d5c-6f45838dd4a5","pitch":72,"startBeat":10,"durationBeats":1,"velocity":92},{"id":"8e27dff1-43c0-457d-b3cb-5dcf71583257","pitch":69,"startBeat":11,"durationBeats":3,"velocity":96}]}],"scenes":[{"id":"441434fd-e9fe-4e79-86aa-21feff0048c4","name":"Scene 1"},{"id":"175f6ee4-5a08-4c38-858c-f32b8a342c61","name":"Scene 2"},{"id":"7ddb1f1c-b32a-4c3d-8e80-7e6e4997dd2f","name":"Scene 3"},{"id":"8c770df0-ceb8-4b26-8380-24672261b153","name":"Scene 4"},{"id":"0f9ce3ec-0f3c-484b-8d10-c367534b071b","name":"Scene 5"},{"id":"85db84ad-1b58-4a7f-9eda-ed5233f9627b","name":"Scene 6"},{"id":"c7dbbbc0-2375-4ccc-bc40-d10f8f3580ff","name":"Scene 7"},{"id":"a9957ad7-9ddb-4f63-a1bc-1db448ad37e0","name":"Scene 8"}],"sessionGrid":{"0f338619-7d74-4bcb-ad4e-f7c8e583be5e":[null,null,null,null,null,null,null,null],"8e52eff1-c2a9-4fc3-8c9b-f9573731ebe0":[null,null,null,null,null,null,null,null],"f5549d5a-4d11-491e-af63-3f29a9f51781":[null,null,null,null,null,null,null,null],"185239ed-ce60-41e9-8a9a-9887da37b771":[null,null,null,null,null,null,null,null]},"loopStart":0,"loopEnd":16,"loopEnabled":false,"masterVolume":0.85,"automationLanes":[],"clipEffects":[],"returnTracks":[],"takeLanes":[],"crossfaderValue":0.5,"waveformZoom":1,"swing":0,"cueMarkers":[],"key":0,"scale":"major"}